<?xml version="1.0" encoding="utf-8"?>
<svg width="2032px" height="500px" viewBox="0 0 2032 500" version="1.1" xmlns:xlink="http://www.w3.org/1999/xlink" xmlns="http://www.w3.org/2000/svg">
  <defs>
    <path d="M103.999 0L1919 0Q1921.55 0 1924.1 0.125271Q1926.65 0.250543 1929.19 0.500784Q1931.74 0.751024 1934.26 1.12563Q1936.79 1.50024 1939.29 1.99831Q1941.79 2.49638 1944.27 3.11672Q1946.75 3.73706 1949.19 4.47816Q1951.63 5.21927 1954.04 6.07936Q1956.44 6.93945 1958.8 7.91645Q1961.16 8.89345 1963.47 9.98502Q1965.77 11.0766 1968.03 12.2801Q1970.28 13.4836 1972.47 14.7961Q1974.66 16.1086 1976.78 17.527Q1978.9 18.9454 1980.95 20.4662Q1983 21.9871 1984.98 23.6067Q1986.95 25.2263 1988.84 26.9408Q1990.73 28.6553 1992.54 30.4606Q1994.34 32.2659 1996.06 34.1575Q1997.77 36.0492 1999.39 38.0227Q2001.01 39.9963 2002.53 42.0469Q2004.05 44.0975 2005.47 46.2202Q2006.89 48.343 2008.2 50.5328Q2009.52 52.7226 2010.72 54.9742Q2011.92 57.2258 2013.01 59.5337Q2014.11 61.8416 2015.08 64.2003Q2016.06 66.559 2016.92 68.9628Q2017.78 71.3666 2018.52 73.8097Q2019.26 76.2528 2019.88 78.7293Q2020.5 81.2058 2021 83.7098Q2021.5 86.2138 2021.87 88.7392Q2022.25 91.2646 2022.5 93.8053Q2022.75 96.346 2022.87 98.896Q2023 101.446 2023 103.999L2023 396.001Q2023 398.554 2022.87 401.104Q2022.75 403.654 2022.5 406.195Q2022.25 408.735 2021.87 411.261Q2021.5 413.786 2021 416.29Q2020.5 418.794 2019.88 421.271Q2019.26 423.747 2018.52 426.19Q2017.78 428.633 2016.92 431.037Q2016.06 433.441 2015.08 435.8Q2014.11 438.158 2013.01 440.466Q2011.92 442.774 2010.72 445.026Q2009.52 447.277 2008.2 449.467Q2006.89 451.657 2005.47 453.78Q2004.05 455.902 2002.53 457.953Q2001.01 460.004 1999.39 461.977Q1997.77 463.951 1996.06 465.842Q1994.34 467.734 1992.54 469.539Q1990.73 471.345 1988.84 473.059Q1986.95 474.774 1984.98 476.393Q1983 478.013 1980.95 479.534Q1978.9 481.055 1976.78 482.473Q1974.66 483.891 1972.47 485.204Q1970.28 486.516 1968.03 487.72Q1965.77 488.923 1963.47 490.015Q1961.16 491.106 1958.8 492.083Q1956.44 493.06 1954.04 493.921Q1951.63 494.781 1949.19 495.522Q1946.75 496.263 1944.27 496.883Q1941.79 497.504 1939.29 498.002Q1936.79 498.5 1934.26 498.874Q1931.74 499.249 1929.19 499.499Q1926.65 499.749 1924.1 499.875Q1921.55 500 1919 500L103.999 500Q101.446 500 98.896 499.875Q96.3461 499.749 93.8053 499.499Q91.2646 499.249 88.7392 498.874Q86.2138 498.5 83.7098 498.002Q81.2058 497.504 78.7293 496.883Q76.2528 496.263 73.8097 495.522Q71.3666 494.781 68.9628 493.921Q66.559 493.06 64.2003 492.083Q61.8416 491.106 59.5337 490.015Q57.2258 488.923 54.9742 487.72Q52.7226 486.516 50.5328 485.204Q48.343 483.891 46.2202 482.473Q44.0975 481.054 42.0469 479.534Q39.9963 478.013 38.0227 476.393Q36.0492 474.774 34.1575 473.059Q32.2659 471.345 30.4606 469.539Q28.6553 467.734 26.9408 465.842Q25.2263 463.951 23.6067 461.977Q21.9871 460.004 20.4662 457.953Q18.9454 455.902 17.527 453.78Q16.1086 451.657 14.7961 449.467Q13.4836 447.277 12.2801 445.026Q11.0766 442.774 9.98502 440.466Q8.89345 438.158 7.91645 435.8Q6.93945 433.441 6.07936 431.037Q5.21927 428.633 4.47816 426.19Q3.73706 423.747 3.11672 421.271Q2.49638 418.794 1.99831 416.29Q1.50024 413.786 1.12563 411.261Q0.751024 408.735 0.500784 406.195Q0.250543 403.654 0.125271 401.104Q0 398.554 0 396.001L0 103.999Q0 101.446 0.125271 98.896Q0.250543 96.3461 0.500784 93.8053Q0.751024 91.2646 1.12563 88.7392Q1.50024 86.2138 1.99831 83.7098Q2.49638 81.2058 3.11672 78.7293Q3.73706 76.2528 4.47816 73.8097Q5.21927 71.3666 6.07936 68.9628Q6.93945 66.559 7.91645 64.2003Q8.89345 61.8416 9.98502 59.5337Q11.0766 57.2258 12.2801 54.9742Q13.4836 52.7226 14.7961 50.5328Q16.1086 48.343 17.527 46.2202Q18.9454 44.0975 20.4662 42.0469Q21.9871 39.9963 23.6067 38.0227Q25.2263 36.0492 26.9408 34.1575Q28.6553 32.2659 30.4606 30.4606Q32.2659 28.6553 34.1575 26.9408Q36.0492 25.2263 38.0227 23.6067Q39.9963 21.9871 42.0469 20.4662Q44.0975 18.9454 46.2202 17.527Q48.343 16.1086 50.5328 14.7961Q52.7226 13.4836 54.9742 12.2801Q57.2258 11.0766 59.5337 9.98502Q61.8416 8.89345 64.2003 7.91645Q66.559 6.93945 68.9628 6.07936Q71.3666 5.21927 73.8097 4.47816Q76.2528 3.73706 78.7293 3.11672Q81.2058 2.49638 83.7098 1.99831Q86.2138 1.50024 88.7392 1.12563Q91.2646 0.751024 93.8053 0.500784Q96.346 0.250543 98.896 0.125271Q101.446 0 103.999 0Z" id="path_1" />
    <path d="M211.727 152.808L24.1461 263.791Q23.693 264.059 23.2233 264.297Q22.7536 264.535 22.2693 264.741Q21.785 264.947 21.2881 265.121Q20.7913 265.295 20.2841 265.436Q19.7769 265.577 19.2616 265.685Q18.7462 265.792 18.2249 265.865Q17.7036 265.939 17.1786 265.977Q16.6536 266.016 16.1272 266.02Q15.6008 266.025 15.0753 265.994Q14.5497 265.964 14.0273 265.899Q13.5049 265.834 12.9879 265.735Q12.4709 265.636 11.9615 265.503Q11.4521 265.37 10.9526 265.204Q10.453 265.038 9.9655 264.839Q9.47795 264.641 9.00451 264.411Q8.53106 264.181 8.07377 263.92Q7.61648 263.659 7.17732 263.369Q6.73816 263.079 6.31904 262.76Q5.89991 262.441 5.50262 262.096Q5.10534 261.751 4.73162 261.38Q4.3579 261.009 4.00935 260.615Q3.66081 260.22 3.33896 259.804Q3.0171 259.387 2.72333 258.95Q2.42955 258.513 2.16513 258.058Q1.9007 257.603 1.66677 257.131Q1.43284 256.66 1.23042 256.174Q1.02799 255.688 0.857948 255.19Q0.687905 254.692 0.550979 254.183Q0.414053 253.675 0.310837 253.159Q0.207621 252.643 0.138561 252.121Q0.0695008 251.599 0.0348956 251.074Q0.00029049 250.548 0.000289917 250.022L3.05176e-05 28.0557Q2.9945e-05 27.5292 0.034634 27.004Q0.069238 26.4787 0.138297 25.9568Q0.207356 25.4349 0.310571 24.9187Q0.413786 24.4025 0.55071 23.8942Q0.687635 23.3859 0.857677 22.8877Q1.02772 22.3895 1.23014 21.9036Q1.43257 21.4176 1.6665 20.946Q1.90043 20.4744 2.16485 20.0193Q2.42927 19.5641 2.72305 19.1272Q3.01682 18.6904 3.33868 18.2738Q3.66053 17.8573 4.00907 17.4628Q4.35761 17.0683 4.73133 16.6975Q5.10505 16.3268 5.50234 15.9814Q5.89962 15.636 6.31875 15.3175Q6.73788 14.999 7.17704 14.7087Q7.61619 14.4184 8.07348 14.1577Q8.53077 13.8969 9.00422 13.6667Q9.47766 13.4366 9.96521 13.238Q10.4528 13.0395 10.9523 12.8735Q11.4518 12.7074 11.9612 12.5745Q12.4706 12.4417 12.9876 12.3426Q13.5046 12.2435 14.027 12.1786Q14.5494 12.1137 15.075 12.0833Q15.6005 12.0529 16.1269 12.0571Q16.6533 12.0614 17.1783 12.1002Q17.7033 12.139 18.2246 12.2122Q18.7459 12.2854 19.2613 12.3928Q19.7766 12.5001 20.2838 12.6411Q20.791 12.7821 21.2878 12.9561Q21.7847 13.1301 22.269 13.3364Q22.7533 13.5427 23.223 13.7804Q23.6927 14.0181 24.1458 14.2861L211.727 125.269Q212.173 125.533 212.602 125.825Q213.03 126.118 213.438 126.437Q213.846 126.756 214.233 127.102Q214.62 127.447 214.984 127.816Q215.347 128.186 215.686 128.578Q216.025 128.97 216.338 129.384Q216.651 129.797 216.936 130.23Q217.222 130.663 217.479 131.113Q217.735 131.563 217.962 132.029Q218.19 132.495 218.386 132.975Q218.583 133.455 218.748 133.946Q218.913 134.438 219.045 134.939Q219.178 135.44 219.278 135.949Q219.378 136.457 219.445 136.971Q219.512 137.485 219.546 138.003Q219.58 138.52 219.58 139.038Q219.58 139.557 219.546 140.074Q219.512 140.592 219.445 141.106Q219.378 141.62 219.278 142.128Q219.178 142.637 219.045 143.138Q218.913 143.639 218.748 144.131Q218.583 144.622 218.386 145.102Q218.19 145.582 217.962 146.048Q217.735 146.514 217.479 146.964Q217.222 147.414 216.936 147.847Q216.651 148.28 216.338 148.693Q216.025 149.107 215.686 149.499Q215.347 149.891 214.984 150.261Q214.62 150.63 214.233 150.975Q213.846 151.321 213.438 151.64Q213.03 151.959 212.602 152.252Q212.173 152.544 211.727 152.808Z" id="path_2" />
    <path d="M72.999 0L1950 0Q1951.79 0 1953.58 0.0879305Q1955.37 0.175861 1957.16 0.35151Q1958.94 0.527159 1960.71 0.790104Q1962.48 1.05305 1964.24 1.40266Q1966 1.75226 1967.74 2.18769Q1969.48 2.62311 1971.19 3.14331Q1972.91 3.66351 1974.59 4.26722Q1976.28 4.87094 1977.94 5.55672Q1979.59 6.2425 1981.21 7.00869Q1982.83 7.77487 1984.41 8.61963Q1985.99 9.46439 1987.53 10.3857Q1989.07 11.307 1990.56 12.3025Q1992.05 13.2981 1993.49 14.3657Q1994.93 15.4332 1996.31 16.57Q1997.7 17.7069 1999.02 18.9103Q2000.35 20.1138 2001.62 21.3809Q2002.89 22.6481 2004.09 23.9759Q2005.29 25.3037 2006.43 26.6889Q2007.57 28.0742 2008.63 29.5135Q2009.7 30.9529 2010.7 32.4429Q2011.69 33.9329 2012.61 35.47Q2013.54 37.0071 2014.38 38.5875Q2015.22 40.1679 2015.99 41.7879Q2016.76 43.4079 2017.44 45.0635Q2018.13 46.7191 2018.73 48.4064Q2019.34 50.0936 2019.86 51.8085Q2020.38 53.5234 2020.81 55.2617Q2021.25 57 2021.6 58.7576Q2021.95 60.5152 2022.21 62.2878Q2022.47 64.0604 2022.65 65.8438Q2022.82 67.6272 2022.91 69.4171Q2023 71.207 2023 72.999L2023 427.001Q2023 428.793 2022.91 430.583Q2022.82 432.373 2022.65 434.156Q2022.47 435.94 2022.21 437.712Q2021.95 439.485 2021.6 441.242Q2021.25 443 2020.81 444.738Q2020.38 446.477 2019.86 448.191Q2019.34 449.906 2018.73 451.594Q2018.13 453.281 2017.44 454.936Q2016.76 456.592 2015.99 458.212Q2015.22 459.832 2014.38 461.412Q2013.54 462.993 2012.61 464.53Q2011.69 466.067 2010.7 467.557Q2009.7 469.047 2008.63 470.486Q2007.57 471.926 2006.43 473.311Q2005.29 474.696 2004.09 476.024Q2002.89 477.352 2001.62 478.619Q2000.35 479.886 1999.02 481.09Q1997.7 482.293 1996.31 483.43Q1994.93 484.567 1993.49 485.634Q1992.05 486.702 1990.56 487.697Q1989.07 488.693 1987.53 489.614Q1985.99 490.536 1984.41 491.38Q1982.83 492.225 1981.21 492.991Q1979.59 493.757 1977.94 494.443Q1976.28 495.129 1974.59 495.733Q1972.91 496.336 1971.19 496.857Q1969.48 497.377 1967.74 497.812Q1966 498.248 1964.24 498.597Q1962.48 498.947 1960.71 499.21Q1958.94 499.473 1957.16 499.648Q1955.37 499.824 1953.58 499.912Q1951.79 500 1950 500L72.999 500Q71.207 500 69.4171 499.912Q67.6272 499.824 65.8438 499.648Q64.0604 499.473 62.2878 499.21Q60.5152 498.947 58.7576 498.597Q57 498.248 55.2617 497.812Q53.5234 497.377 51.8085 496.857Q50.0936 496.336 48.4064 495.733Q46.7191 495.129 45.0635 494.443Q43.4079 493.757 41.7879 492.991Q40.1679 492.225 38.5875 491.38Q37.0071 490.536 35.47 489.614Q33.9329 488.693 32.4429 487.697Q30.9529 486.702 29.5135 485.634Q28.0742 484.567 26.6889 483.43Q25.3037 482.293 23.9759 481.09Q22.6481 479.886 21.3809 478.619Q20.1138 477.352 18.9103 476.024Q17.7069 474.696 16.57 473.311Q15.4332 471.926 14.3657 470.486Q13.2981 469.047 12.3025 467.557Q11.307 466.067 10.3857 464.53Q9.46439 462.993 8.61963 461.412Q7.77487 459.832 7.00869 458.212Q6.2425 456.592 5.55672 454.936Q4.87094 453.281 4.26722 451.594Q3.66351 449.906 3.14331 448.191Q2.62311 446.477 2.18769 444.738Q1.75226 443 1.40266 441.242Q1.05305 439.485 0.790104 437.712Q0.527159 435.94 0.35151 434.156Q0.175861 432.373 0.0879305 430.583Q0 428.793 0 427.001L0 72.999Q0 71.207 0.0879305 69.4171Q0.175861 67.6272 0.35151 65.8438Q0.527159 64.0604 0.790104 62.2878Q1.05305 60.5152 1.40266 58.7576Q1.75226 57 2.18769 55.2617Q2.62311 53.5234 3.14331 51.8085Q3.66351 50.0936 4.26722 48.4064Q4.87094 46.7191 5.55672 45.0635Q6.2425 43.4079 7.00869 41.7879Q7.77487 40.1679 8.61963 38.5875Q9.46439 37.0071 10.3857 35.47Q11.307 33.9329 12.3025 32.4429Q13.2981 30.9529 14.3657 29.5135Q15.4332 28.0742 16.57 26.6889Q17.7069 25.3037 18.9103 23.9759Q20.1138 22.6481 21.3809 21.3809Q22.6481 20.1138 23.9759 18.9103Q25.3037 17.7069 26.6889 16.57Q28.0742 15.4332 29.5135 14.3657Q30.9529 13.2981 32.4429 12.3025Q33.9329 11.307 35.47 10.3857Q37.0071 9.46439 38.5875 8.61963Q40.1679 7.77487 41.7879 7.00869Q43.4079 6.2425 45.0635 5.55672Q46.7191 4.87094 48.4064 4.26722Q50.0936 3.66351 51.8085 3.14331Q53.5234 2.62311 55.2617 2.18769Q57 1.75226 58.7576 1.40266Q60.5152 1.05305 62.2878 0.790104Q64.0604 0.527159 65.8438 0.35151Q67.6272 0.175861 69.4171 0.0879305Q71.207 0 72.999 0Z" id="path_3" />
    <rect width="2032" height="500" id="artboard_1" />
    <clipPath id="clip_1">
      <use xlink:href="#artboard_1" clip-rule="evenodd" />
    </clipPath>
    <clipPath id="clip_2">
      <use xlink:href="#path_3" />
    </clipPath>
    <clipPath id="mask_1">
      <use xlink:href="#path_1" />
    </clipPath>
    <clipPath id="mask_2">
      <use xlink:href="#path_2" />
    </clipPath>
  </defs>
  <g id="Artboard" clip-path="url(#clip_1)">
    <use xlink:href="#artboard_1" stroke="none" fill="#FFFFFF" fill-opacity="0" />
    <g id="Group" transform="translate(5 0)" artboard="ad2ea8f1-dd79-42ba-8f31-8a965aefbbdd">
      <g id="Rectangle-+-Rectangle-Copy-2-Mask">
        <path d="M103.999 0L1919 0Q1921.55 0 1924.1 0.125271Q1926.65 0.250543 1929.19 0.500784Q1931.74 0.751024 1934.26 1.12563Q1936.79 1.50024 1939.29 1.99831Q1941.79 2.49638 1944.27 3.11672Q1946.75 3.73706 1949.19 4.47816Q1951.63 5.21927 1954.04 6.07936Q1956.44 6.93945 1958.8 7.91645Q1961.16 8.89345 1963.47 9.98502Q1965.77 11.0766 1968.03 12.2801Q1970.28 13.4836 1972.47 14.7961Q1974.66 16.1086 1976.78 17.527Q1978.9 18.9454 1980.95 20.4662Q1983 21.9871 1984.98 23.6067Q1986.95 25.2263 1988.84 26.9408Q1990.73 28.6553 1992.54 30.4606Q1994.34 32.2659 1996.06 34.1575Q1997.77 36.0492 1999.39 38.0227Q2001.01 39.9963 2002.53 42.0469Q2004.05 44.0975 2005.47 46.2202Q2006.89 48.343 2008.2 50.5328Q2009.52 52.7226 2010.72 54.9742Q2011.92 57.2258 2013.01 59.5337Q2014.11 61.8416 2015.08 64.2003Q2016.06 66.559 2016.92 68.9628Q2017.78 71.3666 2018.52 73.8097Q2019.26 76.2528 2019.88 78.7293Q2020.5 81.2058 2021 83.7098Q2021.5 86.2138 2021.87 88.7392Q2022.25 91.2646 2022.5 93.8053Q2022.75 96.346 2022.87 98.896Q2023 101.446 2023 103.999L2023 396.001Q2023 398.554 2022.87 401.104Q2022.75 403.654 2022.5 406.195Q2022.25 408.735 2021.87 411.261Q2021.5 413.786 2021 416.29Q2020.5 418.794 2019.88 421.271Q2019.26 423.747 2018.52 426.19Q2017.78 428.633 2016.92 431.037Q2016.06 433.441 2015.08 435.8Q2014.11 438.158 2013.01 440.466Q2011.92 442.774 2010.72 445.026Q2009.52 447.277 2008.2 449.467Q2006.89 451.657 2005.47 453.78Q2004.05 455.902 2002.53 457.953Q2001.01 460.004 1999.39 461.977Q1997.77 463.951 1996.06 465.842Q1994.34 467.734 1992.54 469.539Q1990.73 471.345 1988.84 473.059Q1986.95 474.774 1984.98 476.393Q1983 478.013 1980.95 479.534Q1978.9 481.055 1976.78 482.473Q1974.66 483.891 1972.47 485.204Q1970.28 486.516 1968.03 487.72Q1965.77 488.923 1963.47 490.015Q1961.16 491.106 1958.8 492.083Q1956.44 493.06 1954.04 493.921Q1951.63 494.781 1949.19 495.522Q1946.75 496.263 1944.27 496.883Q1941.79 497.504 1939.29 498.002Q1936.79 498.5 1934.26 498.874Q1931.74 499.249 1929.19 499.499Q1926.65 499.749 1924.1 499.875Q1921.55 500 1919 500L103.999 500Q101.446 500 98.896 499.875Q96.3461 499.749 93.8053 499.499Q91.2646 499.249 88.7392 498.874Q86.2138 498.5 83.7098 498.002Q81.2058 497.504 78.7293 496.883Q76.2528 496.263 73.8097 495.522Q71.3666 494.781 68.9628 493.921Q66.559 493.06 64.2003 492.083Q61.8416 491.106 59.5337 490.015Q57.2258 488.923 54.9742 487.72Q52.7226 486.516 50.5328 485.204Q48.343 483.891 46.2202 482.473Q44.0975 481.054 42.0469 479.534Q39.9963 478.013 38.0227 476.393Q36.0492 474.774 34.1575 473.059Q32.2659 471.345 30.4606 469.539Q28.6553 467.734 26.9408 465.842Q25.2263 463.951 23.6067 461.977Q21.9871 460.004 20.4662 457.953Q18.9454 455.902 17.527 453.78Q16.1086 451.657 14.7961 449.467Q13.4836 447.277 12.2801 445.026Q11.0766 442.774 9.98502 440.466Q8.89345 438.158 7.91645 435.8Q6.93945 433.441 6.07936 431.037Q5.21927 428.633 4.47816 426.19Q3.73706 423.747 3.11672 421.271Q2.49638 418.794 1.99831 416.29Q1.50024 413.786 1.12563 411.261Q0.751024 408.735 0.500784 406.195Q0.250543 403.654 0.125271 401.104Q0 398.554 0 396.001L0 103.999Q0 101.446 0.125271 98.896Q0.250543 96.3461 0.500784 93.8053Q0.751024 91.2646 1.12563 88.7392Q1.50024 86.2138 1.99831 83.7098Q2.49638 81.2058 3.11672 78.7293Q3.73706 76.2528 4.47816 73.8097Q5.21927 71.3666 6.07936 68.9628Q6.93945 66.559 7.91645 64.2003Q8.89345 61.8416 9.98502 59.5337Q11.0766 57.2258 12.2801 54.9742Q13.4836 52.7226 14.7961 50.5328Q16.1086 48.343 17.527 46.2202Q18.9454 44.0975 20.4662 42.0469Q21.9871 39.9963 23.6067 38.0227Q25.2263 36.0492 26.9408 34.1575Q28.6553 32.2659 30.4606 30.4606Q32.2659 28.6553 34.1575 26.9408Q36.0492 25.2263 38.0227 23.6067Q39.9963 21.9871 42.0469 20.4662Q44.0975 18.9454 46.2202 17.527Q48.343 16.1086 50.5328 14.7961Q52.7226 13.4836 54.9742 12.2801Q57.2258 11.0766 59.5337 9.98502Q61.8416 8.89345 64.2003 7.91645Q66.559 6.93945 68.9628 6.07936Q71.3666 5.21927 73.8097 4.47816Q76.2528 3.73706 78.7293 3.11672Q81.2058 2.49638 83.7098 1.99831Q86.2138 1.50024 88.7392 1.12563Q91.2646 0.751024 93.8053 0.500784Q96.346 0.250543 98.896 0.125271Q101.446 0 103.999 0Z" id="Mask" fill="#2F80ED" fill-rule="evenodd" stroke="none" />
        <g clip-path="url(#mask_1)">
          <path d="M2255.85 171.827L1721.76 1060.71L-38.866 2.82538L495.227 -886.058L2255.85 171.827Z" id="Rectangle-Copy-2" fill="#003C8D" fill-opacity="0.18039216" fill-rule="evenodd" stroke="none" />
          <path d="M1982.02 -715.26L2694.32 470.202L672.259 1685.18L-40.04 499.716L1982.02 -715.26Z" id="Rectangle" fill="#003C8D" fill-opacity="0.1882353" fill-rule="evenodd" stroke="none" />
          <g id="WEBSEEN" fill="#FFFFFF" transform="translate(458 -19)">
            <path d="M858.5 229.411Q858.5 236.131 865.38 239.971Q872.26 243.811 886.98 248.291Q904.58 254.051 915.94 259.491Q927.3 264.931 935.78 276.451Q944.26 287.971 944.26 306.531Q944.26 366.051 866.82 366.051Q854.02 366.051 835.62 363.811Q817.22 361.571 802.18 358.051Q802.82 351.331 804.9 338.371Q806.98 325.411 808.9 319.011Q820.1 320.611 842.66 322.851Q865.22 325.091 876.74 325.091Q883.46 325.091 884.74 324.131Q886.66 322.851 887.78 319.811Q888.9 316.771 888.9 314.531Q888.9 308.131 882.82 304.771Q876.74 301.411 862.02 296.611Q844.42 291.171 832.9 285.411Q821.38 279.651 812.74 267.491Q804.1 255.331 804.1 235.491Q804.1 221.411 810.5 207.811Q816.9 194.211 823.62 189.411Q828.74 185.891 844.74 182.691Q860.74 179.491 874.82 179.491Q910.66 179.491 933.38 186.211Q933.06 192.611 931.3 203.811Q929.54 215.011 927.62 224.291L920.26 223.971Q878.66 221.091 867.14 221.091Q862.34 221.091 861.7 221.411Q860.42 222.051 859.46 224.291Q858.5 226.531 858.5 229.411ZM281.86 362.531L209.86 362.531L162.82 180.131L224.26 180.131L248.58 314.211L250.18 314.211L276.1 180.131L336.26 180.131L362.82 314.211L363.78 314.211L388.42 180.131L447.3 180.131L400.26 362.531L328.58 362.531L306.82 246.051L304.9 246.051L281.86 362.531ZM466.18 180.131L598.98 180.131L598.98 218.531L523.78 218.531L523.78 251.811L587.14 251.811L587.14 286.371L523.78 286.371L523.78 323.491L598.66 323.491L598.66 362.531L466.18 362.531L466.18 180.131ZM772.74 280.771Q763.46 268.771 741.7 266.211L741.7 264.611Q759.3 260.771 767.46 250.531Q775.62 240.291 775.62 223.651Q775.62 204.451 765.7 195.011Q755.78 185.571 739.94 182.851Q724.1 180.131 698.5 180.131L623.3 180.131L623.3 362.531L685.38 362.531C728.9 362.531 754.927 359.758 763.46 354.211Q766.66 352.291 771.14 345.731Q775.62 339.171 778.82 329.731Q782.02 320.291 782.02 309.731Q782.02 292.771 772.74 280.771ZM1102.02 180.131L969.22 180.131L969.22 362.531L1101.7 362.531L1101.7 323.491L1026.82 323.491L1026.82 286.371L1090.18 286.371L1090.18 251.811L1026.82 251.811L1026.82 218.531L1102.02 218.531L1102.02 180.131ZM1124.74 180.131L1257.54 180.131L1257.54 218.531L1182.34 218.531L1182.34 251.811L1245.7 251.811L1245.7 286.371L1182.34 286.371L1182.34 323.491L1257.22 323.491L1257.22 362.531L1124.74 362.531L1124.74 180.131ZM1281.86 362.531L1335.3 362.531L1335.3 288.931L1335.62 263.971L1336.58 263.971L1350.98 285.731L1400.58 362.531L1454.98 362.531L1454.98 180.131L1401.86 180.131L1401.86 281.251L1400.9 281.251Q1395.14 270.051 1384.26 253.731L1335.94 180.131L1281.86 180.131L1281.86 362.531ZM708.58 214.851Q712.9 215.651 716.1 218.851Q720.9 223.651 720.9 233.251Q720.9 239.651 718.5 245.091Q716.1 250.531 713.22 251.811Q709.38 253.411 697.54 253.411L680.9 253.411L680.9 214.371Q685.7 214.051 694.98 214.051Q704.26 214.051 708.58 214.851ZM725.22 318.531Q723.78 323.811 721.54 325.731Q719.62 327.331 707.78 328.131Q695.94 328.931 680.9 328.611L680.9 282.211Q686.34 281.891 694.34 281.891Q706.82 281.891 712.1 282.851Q717.38 283.811 720.26 286.691Q723.14 289.251 724.9 295.171Q726.66 301.091 726.66 307.811Q726.66 313.251 725.22 318.531Z" />
          </g>
        </g>
      </g>
      <g id="Triangle-Copy-Mask" transform="translate(159.5 111.49994)">
        <path d="M211.727 152.808L24.1461 263.791Q23.693 264.059 23.2233 264.297Q22.7536 264.535 22.2693 264.741Q21.785 264.947 21.2881 265.121Q20.7913 265.295 20.2841 265.436Q19.7769 265.577 19.2616 265.685Q18.7462 265.792 18.2249 265.865Q17.7036 265.939 17.1786 265.977Q16.6536 266.016 16.1272 266.02Q15.6008 266.025 15.0753 265.994Q14.5497 265.964 14.0273 265.899Q13.5049 265.834 12.9879 265.735Q12.4709 265.636 11.9615 265.503Q11.4521 265.37 10.9526 265.204Q10.453 265.038 9.9655 264.839Q9.47795 264.641 9.00451 264.411Q8.53106 264.181 8.07377 263.92Q7.61648 263.659 7.17732 263.369Q6.73816 263.079 6.31904 262.76Q5.89991 262.441 5.50262 262.096Q5.10534 261.751 4.73162 261.38Q4.3579 261.009 4.00935 260.615Q3.66081 260.22 3.33896 259.804Q3.0171 259.387 2.72333 258.95Q2.42955 258.513 2.16513 258.058Q1.9007 257.603 1.66677 257.131Q1.43284 256.66 1.23042 256.174Q1.02799 255.688 0.857948 255.19Q0.687905 254.692 0.550979 254.183Q0.414053 253.675 0.310837 253.159Q0.207621 252.643 0.138561 252.121Q0.0695008 251.599 0.0348956 251.074Q0.00029049 250.548 0.000289917 250.022L3.05176e-05 28.0557Q2.9945e-05 27.5292 0.034634 27.004Q0.069238 26.4787 0.138297 25.9568Q0.207356 25.4349 0.310571 24.9187Q0.413786 24.4025 0.55071 23.8942Q0.687635 23.3859 0.857677 22.8877Q1.02772 22.3895 1.23014 21.9036Q1.43257 21.4176 1.6665 20.946Q1.90043 20.4744 2.16485 20.0193Q2.42927 19.5641 2.72305 19.1272Q3.01682 18.6904 3.33868 18.2738Q3.66053 17.8573 4.00907 17.4628Q4.35761 17.0683 4.73133 16.6975Q5.10505 16.3268 5.50234 15.9814Q5.89962 15.636 6.31875 15.3175Q6.73788 14.999 7.17704 14.7087Q7.61619 14.4184 8.07348 14.1577Q8.53077 13.8969 9.00422 13.6667Q9.47766 13.4366 9.96521 13.238Q10.4528 13.0395 10.9523 12.8735Q11.4518 12.7074 11.9612 12.5745Q12.4706 12.4417 12.9876 12.3426Q13.5046 12.2435 14.027 12.1786Q14.5494 12.1137 15.075 12.0833Q15.6005 12.0529 16.1269 12.0571Q16.6533 12.0614 17.1783 12.1002Q17.7033 12.139 18.2246 12.2122Q18.7459 12.2854 19.2613 12.3928Q19.7766 12.5001 20.2838 12.6411Q20.791 12.7821 21.2878 12.9561Q21.7847 13.1301 22.269 13.3364Q22.7533 13.5427 23.223 13.7804Q23.6927 14.0181 24.1458 14.2861L211.727 125.269Q212.173 125.533 212.602 125.825Q213.03 126.118 213.438 126.437Q213.846 126.756 214.233 127.102Q214.62 127.447 214.984 127.816Q215.347 128.186 215.686 128.578Q216.025 128.97 216.338 129.384Q216.651 129.797 216.936 130.23Q217.222 130.663 217.479 131.113Q217.735 131.563 217.962 132.029Q218.19 132.495 218.386 132.975Q218.583 133.455 218.748 133.946Q218.913 134.438 219.045 134.939Q219.178 135.44 219.278 135.949Q219.378 136.457 219.445 136.971Q219.512 137.485 219.546 138.003Q219.58 138.52 219.58 139.038Q219.58 139.557 219.546 140.074Q219.512 140.592 219.445 141.106Q219.378 141.62 219.278 142.128Q219.178 142.637 219.045 143.138Q218.913 143.639 218.748 144.131Q218.583 144.622 218.386 145.102Q218.19 145.582 217.962 146.048Q217.735 146.514 217.479 146.964Q217.222 147.414 216.936 147.847Q216.651 148.28 216.338 148.693Q216.025 149.107 215.686 149.499Q215.347 149.891 214.984 150.261Q214.62 150.63 214.233 150.975Q213.846 151.321 213.438 151.64Q213.03 151.959 212.602 152.252Q212.173 152.544 211.727 152.808Z" id="Mask" fill="#FFFFFF" fill-rule="evenodd" stroke="none" />
      </g>
      <g id="Rectangle-Copy">
        <use stroke="none" fill="#FF0000" fill-opacity="0" xlink:href="#path_3" fill-rule="evenodd" />
        <g clip-path="url(#clip_2)">
          <use xlink:href="#path_3" fill="none" stroke="#FFFFFF" stroke-width="28" />
        </g>
      </g>
    </g>
  </g>
</svg>